<svg id="Group_5120" data-name="Group 5120" xmlns="http://www.w3.org/2000/svg" width="264" height="126" viewBox="0 0 264 126">
  <g id="NIC_Logo">
    <g id="national-insurance-logo">
      <path id="Path_1007" data-name="Path 1007" d="M0,0H264V97H0Z" fill="#00989f" fill-rule="evenodd"/>
      <path id="Path_1008" data-name="Path 1008" d="M0,0H119.018L75.357,97H46Z" fill="#fff" fill-rule="evenodd"/>
      <path id="Path_1009" data-name="Path 1009" d="M0,0H119.018L75.357,97,62.026,40.2,73.109,36.4l-16.558-6.12L46,97Z" fill="#2c2b7c" fill-rule="evenodd"/>
      <path id="Path_1010" data-name="Path 1010" d="M39.693,22.88a1.488,1.488,0,1,1-1.527,1.488,1.507,1.507,0,0,1,1.527-1.488Z" transform="translate(19.391 10.489)" fill="#2c2b7c" stroke="#231f20" stroke-width="0.22" fill-rule="evenodd"/>
      <path id="Path_1011" data-name="Path 1011" d="M67.465,64.252V46.81h1.719L76.046,62.02V46.81h1.432V64.252H75.714l-6.831-14.92v14.92H67.45Zm20.374.044c-.226.044-.407.073-.559.087s-.3.029-.436.029a1.454,1.454,0,0,1-.89-.263,1.685,1.685,0,0,1-.559-.832,3.732,3.732,0,0,1-1.3.981,3.9,3.9,0,0,1-1.629.336,2.9,2.9,0,0,1-2.291-.948,3.814,3.814,0,0,1-.829-2.625,3.638,3.638,0,0,1,.739-2.378,5.986,5.986,0,0,1,2.564-1.575c.256-.087.6-.2,1.025-.35,1.161-.394,1.745-.9,1.745-1.546V54.133a1.689,1.689,0,0,0-1.964-1.969,2.262,2.262,0,0,0-1.673.6,2.652,2.652,0,0,0-.6,1.809H79.815v-.28a2.943,2.943,0,0,1,1.01-2.348,3.953,3.953,0,0,1,2.7-.872,5.13,5.13,0,0,1,1.689.247,2.433,2.433,0,0,1,1.1.743,1.945,1.945,0,0,1,.407.8,5.172,5.172,0,0,1,.121,1.342v7.631a2.348,2.348,0,0,0,.181,1.2.865.865,0,0,0,.694.233h.135v1.006h0Zm-2.473-6.928a13.353,13.353,0,0,0-3.818,1.866,2.387,2.387,0,0,0-.739,1.823,2.6,2.6,0,0,0,.528,1.721,1.723,1.723,0,0,0,1.418.627,2.224,2.224,0,0,0,1.976-.948,5.42,5.42,0,0,0,.634-2.961V57.369ZM93,64.31c-.166.029-.327.073-.5.087s-.362.029-.588.029a2.055,2.055,0,0,1-1.659-.554,5.049,5.049,0,0,1-.436-2.712V52.54H88.472V51.4h1.342V47.772h1.4V51.4h1.795v1.138H91.217v8.9a3.3,3.3,0,0,0,.226,1.589,1.012,1.012,0,0,0,.86.306,2.193,2.193,0,0,0,.3-.014,1.97,1.97,0,0,0,.392-.059v1.05Zm2.066-.073V51.389h1.478V64.238Zm5.673-6.388a9.488,9.488,0,0,0,.694,4.113,2.206,2.206,0,0,0,4.1-.014,9.46,9.46,0,0,0,.694-4.1,9.7,9.7,0,0,0-.694-4.1,2.211,2.211,0,0,0-4.1,0,9.674,9.674,0,0,0-.694,4.113h0Zm-1.527,0a9.689,9.689,0,0,1,1.07-5.076,3.867,3.867,0,0,1,6.394,0,9.653,9.653,0,0,1,1.07,5.076,9.609,9.609,0,0,1-1.056,5.06,3.512,3.512,0,0,1-3.2,1.677,3.567,3.567,0,0,1-3.212-1.677,9.609,9.609,0,0,1-1.056-5.06h0Zm17.026,6.388V55.574a5.275,5.275,0,0,0-.436-2.654,1.814,1.814,0,0,0-1.569-.613,3.011,3.011,0,0,0-1.9.67,1.86,1.86,0,0,0-.844,1.443v9.8h-1.448V51.374h1.309v1.4a4.307,4.307,0,0,1,1.448-1.308,3.777,3.777,0,0,1,1.795-.423,2.8,2.8,0,0,1,2.367.963,5.113,5.113,0,0,1,.739,3.107v9.1h-1.448Zm11.582.044c-.226.044-.407.073-.559.087s-.3.029-.436.029a1.454,1.454,0,0,1-.89-.263,1.685,1.685,0,0,1-.559-.832,3.732,3.732,0,0,1-1.3.981,3.9,3.9,0,0,1-1.629.336,2.9,2.9,0,0,1-2.291-.948,3.814,3.814,0,0,1-.829-2.625,3.638,3.638,0,0,1,.739-2.378,5.986,5.986,0,0,1,2.564-1.575c.256-.087.6-.2,1.025-.35,1.161-.394,1.745-.9,1.745-1.546V54.118a1.688,1.688,0,0,0-1.964-1.969,2.262,2.262,0,0,0-1.674.6,2.652,2.652,0,0,0-.6,1.809h-1.372v-.277a2.942,2.942,0,0,1,1.01-2.348,3.953,3.953,0,0,1,2.7-.872,5.13,5.13,0,0,1,1.689.247,2.432,2.432,0,0,1,1.1.743,1.943,1.943,0,0,1,.407.8,5.167,5.167,0,0,1,.121,1.342v7.631a2.348,2.348,0,0,0,.181,1.2.866.866,0,0,0,.694.233h.135v1.006h0Zm-2.473-6.928a13.351,13.351,0,0,0-3.818,1.866,2.386,2.386,0,0,0-.739,1.823,2.6,2.6,0,0,0,.528,1.721,1.723,1.723,0,0,0,1.418.627,2.224,2.224,0,0,0,1.976-.948,5.419,5.419,0,0,0,.634-2.961V57.353ZM130,64.22V46.778h1.448V64.22Zm10.888,0V46.778h1.527V64.22Zm10.617,0V55.56a5.275,5.275,0,0,0-.436-2.654,1.814,1.814,0,0,0-1.569-.613,3.013,3.013,0,0,0-1.9.67,1.86,1.86,0,0,0-.844,1.443v9.8h-1.448V51.36h1.309v1.4a4.308,4.308,0,0,1,1.448-1.308,3.777,3.777,0,0,1,1.8-.427,2.8,2.8,0,0,1,2.367.963,5.112,5.112,0,0,1,.739,3.107v9.1h-1.448Zm3.454-3.488h1.357a2.876,2.876,0,0,0,.619,1.969,2.359,2.359,0,0,0,1.81.686,2.32,2.32,0,0,0,1.779-.642,2.288,2.288,0,0,0,.663-1.735c0-1.09-.982-2.144-2.945-3.121q-.295-.153-.453-.218a5.324,5.324,0,0,1-2.066-1.526,3.486,3.486,0,0,1-.5-2,2.936,2.936,0,0,1,.9-2.246,4.119,4.119,0,0,1,5.085.032,3.284,3.284,0,0,1,.992,2.666h-1.324a3.181,3.181,0,0,0-.709-1.794,1.921,1.921,0,0,0-1.492-.583,2.233,2.233,0,0,0-1.538.51,1.813,1.813,0,0,0-.559,1.4c0,.992,1.071,2.028,3.227,3.092.256.131.453.233.588.292a4.254,4.254,0,0,1,1.689,1.443A3.651,3.651,0,0,1,162.68,61a3.4,3.4,0,0,1-1.07,2.611,3.968,3.968,0,0,1-2.8.992,3.8,3.8,0,0,1-2.82-.981,3.693,3.693,0,0,1-.995-2.771v-.117h0Zm11.145-9.363v8.677a5.169,5.169,0,0,0,.436,2.639,1.814,1.814,0,0,0,1.569.613,3.012,3.012,0,0,0,1.9-.67,1.86,1.86,0,0,0,.844-1.436v-9.8H172.3V64.238h-1.3v-1.4a4.492,4.492,0,0,1-1.463,1.308,3.777,3.777,0,0,1-1.795.423,2.8,2.8,0,0,1-2.367-.963,5.091,5.091,0,0,1-.739-3.092V51.4h1.448Zm8.867,12.848V51.374h1.4v1.417a2.854,2.854,0,0,1,1.147-1.21,3.546,3.546,0,0,1,1.745-.394h.256v1.386a3.193,3.193,0,0,0-2.488.9,5.631,5.631,0,0,0-.679,3.325V64.24h-1.4Zm13.636.044c-.226.044-.407.073-.559.087s-.3.029-.436.029a1.454,1.454,0,0,1-.89-.263,1.685,1.685,0,0,1-.557-.832,3.734,3.734,0,0,1-1.3.981,3.9,3.9,0,0,1-1.629.336,2.9,2.9,0,0,1-2.291-.948,3.814,3.814,0,0,1-.829-2.625,3.638,3.638,0,0,1,.739-2.378,5.987,5.987,0,0,1,2.564-1.575c.256-.087.6-.2,1.025-.35,1.161-.394,1.746-.9,1.746-1.546V54.106a1.689,1.689,0,0,0-1.964-1.969,2.262,2.262,0,0,0-1.673.6,2.651,2.651,0,0,0-.6,1.809h-1.372v-.277a2.942,2.942,0,0,1,1.01-2.348,3.953,3.953,0,0,1,2.7-.872,5.13,5.13,0,0,1,1.689.247,2.432,2.432,0,0,1,1.1.743,1.944,1.944,0,0,1,.407.8,5.168,5.168,0,0,1,.121,1.342v7.631a2.347,2.347,0,0,0,.181,1.2.865.865,0,0,0,.694.233h.135v1.006h0Zm-2.473-6.928a13.353,13.353,0,0,0-3.818,1.866,2.387,2.387,0,0,0-.739,1.823,2.6,2.6,0,0,0,.528,1.721,1.723,1.723,0,0,0,1.418.627,2.224,2.224,0,0,0,1.976-.948,5.419,5.419,0,0,0,.634-2.961V57.339ZM196.483,64.2V55.545a5.276,5.276,0,0,0-.436-2.654,1.814,1.814,0,0,0-1.569-.613,3.011,3.011,0,0,0-1.9.67,1.86,1.86,0,0,0-.844,1.443v9.8h-1.448V51.345h1.309v1.4a4.307,4.307,0,0,1,1.448-1.308,3.777,3.777,0,0,1,1.795-.423,2.8,2.8,0,0,1,2.367.963,5.112,5.112,0,0,1,.739,3.107v9.1h-1.449Zm11.823-4.376a6.222,6.222,0,0,1-1.131,3.53,3.55,3.55,0,0,1-5.7-.525,10.071,10.071,0,0,1-1.025-5.046,10.056,10.056,0,0,1,1.025-5.06,3.647,3.647,0,0,1,5.64-.642A4.468,4.468,0,0,1,208.171,55h-1.388a3.254,3.254,0,0,0-.648-2,1.9,1.9,0,0,0-1.553-.743,2.161,2.161,0,0,0-1.964,1.429,9.816,9.816,0,0,0-.678,4.1,9.71,9.71,0,0,0,.679,4.069,2.1,2.1,0,0,0,1.9,1.443,1.9,1.9,0,0,0,1.644-.919,5.16,5.16,0,0,0,.709-2.581h1.418Zm9.47.263a5.448,5.448,0,0,1-1.116,3.325,3.421,3.421,0,0,1-2.745,1.138,3.178,3.178,0,0,1-2.956-1.641,10.368,10.368,0,0,1-.965-5.09,10.22,10.22,0,0,1,.995-5.1,3.3,3.3,0,0,1,3.046-1.662,3.241,3.241,0,0,1,2.836,1.4,7.279,7.279,0,0,1,.965,4.143v1.079h-6.319v.715a8.675,8.675,0,0,0,.6,3.706,1.922,1.922,0,0,0,1.795,1.225,2.049,2.049,0,0,0,1.735-.846,4.3,4.3,0,0,0,.694-2.406h1.432Zm-6.243-3.558h4.84V55.96a5.19,5.19,0,0,0-.619-2.757,1.972,1.972,0,0,0-1.745-.981,2.024,2.024,0,0,0-1.855,1.065,6.187,6.187,0,0,0-.634,3.107v.117h0Z" transform="translate(34.267 21.445)" fill="#fff" fill-rule="evenodd"/>
      <path id="Path_1012" data-name="Path 1012" d="M30.5,11.2H40.573V22.386Z" transform="translate(15.496 5.135)" fill="#fff" fill-rule="evenodd"/>
      <path id="Path_1013" data-name="Path 1013" d="M84.42,45.85h3.514v3.908Z" transform="translate(42.889 21.019)" fill="#fff" fill-rule="evenodd"/>
      <path id="Path_1014" data-name="Path 1014" d="M78.24,28.52h3.529v3.924Z" transform="translate(39.749 13.074)" fill="#fff" fill-rule="evenodd"/>
      <path id="Path_1015" data-name="Path 1015" d="M77.755,43.923c-.407,0-1.01-.5-1.795-1.488a4.359,4.359,0,0,1-1.191-2.26.786.786,0,0,1,.181-.51.529.529,0,0,1,.422-.218h7.24V36.791H74.06V34.852H87.042v1.939h-2.2V48.153h-2.23V41.371h-3.6a.466.466,0,0,0-.347.146.475.475,0,0,0-.151.364V43.31a.533.533,0,0,1-.226.436.819.819,0,0,1-.528.176h0Zm127.626,4.623-4.841-7.175h-3.076a.466.466,0,0,0-.347.146.475.475,0,0,0-.151.364V43.31a.533.533,0,0,1-.226.436.819.819,0,0,1-.528.176c-.407,0-1.01-.5-1.795-1.488a4.36,4.36,0,0,1-1.187-2.259.786.786,0,0,1,.181-.51.529.529,0,0,1,.422-.218h6.243L201.4,38.6c.8,1.371,1.388,2.042,1.735,2.042a.982.982,0,0,0,.709-.277.9.9,0,0,0,.3-.67v-2.9h-13v2.771a3.088,3.088,0,0,1-.663,1.969,1.964,1.964,0,0,1-1.6.832q-.883,0-.995-.131l3.981,5.206-1.735,1.123-6.847-9.013,1.84-1.3a3.755,3.755,0,0,0,1.041,1.575,2.217,2.217,0,0,0,1.463.6,1.239,1.239,0,0,0,.89-.35,1.141,1.141,0,0,0,.377-.846V36.807h-8.007v11.36h-2.232V36.807h-3.845v11.36h-2.2V44.9a3.659,3.659,0,0,1-1.328.817,4.789,4.789,0,0,1-1.673.277,4.933,4.933,0,0,1-3.709-1.619,5.507,5.507,0,0,1-1.538-3.938,6.022,6.022,0,0,0,1.267.233,2.11,2.11,0,0,0,1.493-.569,1.806,1.806,0,0,0,.619-1.371,2.336,2.336,0,0,0-.256-1.036,2.918,2.918,0,0,0-.724-.872h-3.2V34.881H178.82l-5.746-5.4,1.463-1.225,6.3,6.621h7.812l-5.746-5.4,1.463-1.225,6.3,6.621h23.872v1.939h-2.2V48.182h-2.2v-5.79h-2.5l-.873-1.939h3.382V36.835h-3.771v3.379a2.771,2.771,0,0,1-.546,1.721,1.621,1.621,0,0,1-1.327.7,1.3,1.3,0,0,1-.436-.073.736.736,0,0,1-.3-.176l3.5,4.944-1.87,1.255h0Zm-35.74-4.521a3.077,3.077,0,0,0,1.527-.436,5.454,5.454,0,0,0,1.478-1.239V36.79h-3.5a5.014,5.014,0,0,1,.829,1.911,3.366,3.366,0,0,1-.86,2.289,3.71,3.71,0,0,1-2.217,1.225,2.552,2.552,0,0,0,1.056,1.308,3.086,3.086,0,0,0,1.689.5h0Zm-8.853,4.521-6.153-5.483,1.508-1.429,1.131.963a3.331,3.331,0,0,0,2.126-.715,2.91,2.91,0,0,0,1.116-1.838,2.571,2.571,0,0,1-.844.452,3.423,3.423,0,0,1-1.025.16,3.555,3.555,0,0,1-2.4-.846h0v1.575h-3.876a.466.466,0,0,0-.347.146.475.475,0,0,0-.151.364v1.43a.533.533,0,0,1-.226.436.819.819,0,0,1-.528.175c-.407,0-1.01-.5-1.795-1.488a4.36,4.36,0,0,1-1.191-2.261.786.786,0,0,1,.181-.51.529.529,0,0,1,.422-.218H155.9a2.556,2.556,0,0,1-.634-1.706,2.834,2.834,0,0,1,1.056-2.232,3.7,3.7,0,0,1,2.548-.933,3.65,3.65,0,0,1,2.911,1.269,4.934,4.934,0,0,1,1.1,3.369,4.836,4.836,0,0,1-1.1,3.161,4.454,4.454,0,0,1-2.775,1.648l3.382,2.931-1.6,1.589h0Zm-1.9-9.567a1.528,1.528,0,0,0,1.041-.364,1.09,1.09,0,0,0,.436-.86,1.038,1.038,0,0,0-.436-.846,1.624,1.624,0,0,0-1.041-.35,1.708,1.708,0,0,0-1.07.35,1.058,1.058,0,0,0-.436.846,1.09,1.09,0,0,0,.436.86,1.659,1.659,0,0,0,1.07.364Zm-10.919-4.127h6.349v1.939H145.5v3.135h-4.705a.785.785,0,0,0-.482.146.423.423,0,0,0-.212.336,1.463,1.463,0,0,0,.557.919,1.538,1.538,0,0,0,.95.545,5.445,5.445,0,0,0,1.3-.247,4.694,4.694,0,0,1,1.3-.247,2.434,2.434,0,0,1,1.825.787,2.656,2.656,0,0,1,.754,1.9,3.9,3.9,0,0,1-3.242,3.85,13.611,13.611,0,0,0,2.745,1.939l-1.131,1.735a15.638,15.638,0,0,1-4.132-3.092,4.525,4.525,0,0,1-2.443-.627,1.8,1.8,0,0,1-1.01-1.526,1.32,1.32,0,0,1,.468-1.036,1.666,1.666,0,0,1,1.131-.423,6.149,6.149,0,0,1,2.609,1.575,3.183,3.183,0,0,0,2.04-.682,1.972,1.972,0,0,0,.86-1.619.878.878,0,0,0-.181-.554.507.507,0,0,0-.422-.233,6.593,6.593,0,0,0-1.388.218,6.6,6.6,0,0,1-1.388.218,3.55,3.55,0,0,1-2.157-1.283,3.451,3.451,0,0,1-1.309-2.129,1.862,1.862,0,0,1,.86-1.526,3.448,3.448,0,0,1,2.1-.627h2.5V36.807h-6.873v-1.94h11.543Zm-21.912,13.3V40.715a3.382,3.382,0,0,0-1.583,1.006,6.565,6.565,0,0,0-1.389,2.319l-1.764-.963a4.652,4.652,0,0,1,.362-.933,3.942,3.942,0,0,1,.528-.773,2.182,2.182,0,0,0-.873-.5A4.072,4.072,0,0,0,120.1,40.7a2.093,2.093,0,0,0-1.4.51,1.54,1.54,0,0,0-.573,1.225,3.439,3.439,0,0,0,1.025,2.334,6.693,6.693,0,0,0,2.714,1.692l-1.131,1.706a9.522,9.522,0,0,1-3.5-2.538,4.915,4.915,0,0,1-1.309-3.179,3.349,3.349,0,0,1,1.222-2.639,4.266,4.266,0,0,1,2.955-1.09,3.974,3.974,0,0,1,1.659.35,3.652,3.652,0,0,1,1.328.981,3.431,3.431,0,0,1,1.4-.981,4.62,4.62,0,0,1,1.569-.336V36.807h-12.9v11.36h-2.232V41.385h-3.6a.466.466,0,0,0-.347.146.475.475,0,0,0-.151.364v1.43a.533.533,0,0,1-.226.436.819.819,0,0,1-.528.176c-.407,0-1.01-.5-1.795-1.488a4.359,4.359,0,0,1-1.191-2.261.786.786,0,0,1,.181-.51.529.529,0,0,1,.422-.218h7.238V36.807H100.722v11.36H98.491V36.807h-2.2v-1.94h34.188v1.94h-2.2v11.36h-2.232ZM93.5,48.545l-6.153-5.483,1.508-1.429,1.131.963a3.331,3.331,0,0,0,2.126-.715,2.91,2.91,0,0,0,1.117-1.836,2.572,2.572,0,0,1-.844.452,3.423,3.423,0,0,1-1.025.16,3.555,3.555,0,0,1-2.4-.846,2.616,2.616,0,0,1-.995-2.042,2.834,2.834,0,0,1,1.056-2.231,3.7,3.7,0,0,1,2.548-.933,3.65,3.65,0,0,1,2.911,1.269,4.934,4.934,0,0,1,1.1,3.368,4.836,4.836,0,0,1-1.1,3.161A4.454,4.454,0,0,1,91.7,44.052l3.382,2.931-1.6,1.6h0Zm-1.9-9.567a1.528,1.528,0,0,0,1.041-.364,1.09,1.09,0,0,0,.436-.86,1.039,1.039,0,0,0-.436-.846,1.624,1.624,0,0,0-1.041-.35,1.708,1.708,0,0,0-1.07.35,1.058,1.058,0,0,0-.436.846,1.09,1.09,0,0,0,.436.86A1.659,1.659,0,0,0,91.6,38.978Z" transform="translate(37.626 12.955)" fill="#fff" fill-rule="evenodd"/>
    </g>
    <g id="Group_20773" data-name="Group 20773" transform="translate(0 2)">
      <g id="Rectangle_1563" data-name="Rectangle 1563" transform="translate(0 95)" fill="#fff" stroke="#fff" stroke-width="1">
        <rect width="264" height="29" stroke="none"/>
        <rect x="0.5" y="0.5" width="263" height="28" fill="none"/>
      </g>
      <path id="Trusted_Since_1906" data-name="Trusted Since 1906" d="M3.7-5.974,2.009,2.1H4.2L5.893-5.974H8.862l.388-1.831H.982L.594-5.974Zm4.953.9L7.17,2.1H9.126l.666-3.177a6.053,6.053,0,0,1,.257-.881,2.7,2.7,0,0,1,.43-.756,1.959,1.959,0,0,1,.666-.527,2.172,2.172,0,0,1,.964-.194,2.117,2.117,0,0,1,.416.042l.416.083.4-1.914a4.513,4.513,0,0,0-.61-.042,2.917,2.917,0,0,0-1.464.382,2.359,2.359,0,0,0-1.006,1.131l-.028-.028.291-1.29ZM19.628,2.1l1.5-7.172h-1.97l-.8,3.815a3.913,3.913,0,0,1-.243.735,2.492,2.492,0,0,1-.4.638,1.933,1.933,0,0,1-.583.451A1.7,1.7,0,0,1,16.34.74a1.105,1.105,0,0,1-.645-.208.622.622,0,0,1-.3-.527q0-.069.007-.187a2.3,2.3,0,0,1,.028-.243q.021-.125.042-.243a1.431,1.431,0,0,1,.049-.2l.874-4.2h-1.97l-.888,4.2q-.028.1-.062.257t-.069.34q-.035.18-.055.354a2.48,2.48,0,0,0-.021.284q0,1.914,2.095,1.914A3.078,3.078,0,0,0,17.935,1.1h.028l-.222,1Zm7.006-5.077h1.831a2.314,2.314,0,0,0-.222-1.138,1.814,1.814,0,0,0-.645-.7,2.651,2.651,0,0,0-.95-.354,6.351,6.351,0,0,0-1.124-.1,5.236,5.236,0,0,0-1.075.118,3.513,3.513,0,0,0-1.034.388,2.337,2.337,0,0,0-.77.7,1.83,1.83,0,0,0-.3,1.068,2.164,2.164,0,0,0,.1.721,1.372,1.372,0,0,0,.305.5,1.711,1.711,0,0,0,.486.347,5.42,5.42,0,0,0,.659.264l1.512.486a1.771,1.771,0,0,1,.513.264.633.633,0,0,1,.194.527.7.7,0,0,1-.111.409.891.891,0,0,1-.291.264,1.265,1.265,0,0,1-.4.146,2.4,2.4,0,0,1-.444.042,2.137,2.137,0,0,1-.506-.062,1.689,1.689,0,0,1-.458-.18,1.013,1.013,0,0,1-.326-.3.737.737,0,0,1-.125-.43V-.231H21.639V.061a1.9,1.9,0,0,0,.277,1.061,2.138,2.138,0,0,0,.714.68,3.176,3.176,0,0,0,.978.368,5.306,5.306,0,0,0,1.068.111,6.146,6.146,0,0,0,1.235-.125,3.459,3.459,0,0,0,1.1-.416,2.359,2.359,0,0,0,.784-.756,2.05,2.05,0,0,0,.3-1.131,1.924,1.924,0,0,0-.146-.777,1.747,1.747,0,0,0-.4-.576,2.392,2.392,0,0,0-.6-.409A5.169,5.169,0,0,0,26.2-2.2l-.985-.319a2.128,2.128,0,0,1-.7-.319.506.506,0,0,1-.2-.4.559.559,0,0,1,.34-.548,2.045,2.045,0,0,1,.867-.16,1.154,1.154,0,0,1,.839.257A1.012,1.012,0,0,1,26.633-2.977Zm6.451-2.095.444-2.178h-1.97l-.444,2.178H29.852l-.305,1.318h1.29l-.8,3.843q-.042.194-.069.368a1.994,1.994,0,0,0-.028.312,1.35,1.35,0,0,0,.146.721,1.182,1.182,0,0,0,.43.437,1.848,1.848,0,0,0,.61.222,3.793,3.793,0,0,0,.687.062q.319,0,.624-.021t.61-.049L33.375.63a5.934,5.934,0,0,1-.708.042q-.111,0-.229-.007A.485.485,0,0,1,32.224.6a.44.44,0,0,1-.16-.16A.585.585,0,0,1,32,.144a.972.972,0,0,1,.014-.132q.014-.09.042-.2l.735-3.565h1.4L34.5-5.072Zm7.089,2.816H36.885a3.71,3.71,0,0,1,.271-.583,1.917,1.917,0,0,1,.4-.486,1.847,1.847,0,0,1,.555-.333,2.008,2.008,0,0,1,.735-.125,1.558,1.558,0,0,1,.694.132.973.973,0,0,1,.4.354,1.38,1.38,0,0,1,.187.492A3.1,3.1,0,0,1,40.173-2.256Zm-3.5,1.249h5.286a6.159,6.159,0,0,0,.111-1.124A3.568,3.568,0,0,0,41.831-3.5a2.683,2.683,0,0,0-.68-.985,2.8,2.8,0,0,0-1.054-.59,4.538,4.538,0,0,0-1.366-.194A3.64,3.64,0,0,0,37.08-4.9a3.759,3.759,0,0,0-1.242.985A4.584,4.584,0,0,0,35.054-2.5a5.01,5.01,0,0,0-.277,1.658,3.7,3.7,0,0,0,.229,1.36,2.676,2.676,0,0,0,.645.978,2.633,2.633,0,0,0,1.006.59,4.174,4.174,0,0,0,1.311.194,5.483,5.483,0,0,0,1.366-.153,3.151,3.151,0,0,0,1.034-.465,3.1,3.1,0,0,0,.763-.77,5.034,5.034,0,0,0,.555-1.068h-1.97q-.111.166-.243.347a1.664,1.664,0,0,1-.305.319,1.546,1.546,0,0,1-.4.229,1.411,1.411,0,0,1-.52.09A1.625,1.625,0,0,1,37.052.421a1.37,1.37,0,0,1-.388-1.013V-.883A.643.643,0,0,1,36.677-1.007Zm10.46-2.775a1.3,1.3,0,0,1,1.068.423,1.729,1.729,0,0,1,.347,1.131,4.157,4.157,0,0,1-.132.992,3.662,3.662,0,0,1-.4.992,2.53,2.53,0,0,1-.673.756,1.563,1.563,0,0,1-.957.3,1.348,1.348,0,0,1-.61-.132,1.3,1.3,0,0,1-.437-.347,1.506,1.506,0,0,1-.264-.506,2.053,2.053,0,0,1-.09-.61,4.339,4.339,0,0,1,.125-1,3.444,3.444,0,0,1,.388-.971,2.386,2.386,0,0,1,.673-.735A1.619,1.619,0,0,1,47.137-3.782Zm.791,4.994-.194.888h1.9l2.095-9.905h-1.97l-.791,3.69h-.028a1.584,1.584,0,0,0-.812-.874,2.732,2.732,0,0,0-1.2-.277,3.51,3.51,0,0,0-1.734.409,3.744,3.744,0,0,0-1.221,1.075,4.668,4.668,0,0,0-.721,1.512,6.429,6.429,0,0,0-.236,1.734,2.878,2.878,0,0,0,.714,2.06,2.643,2.643,0,0,0,2.019.756,3.014,3.014,0,0,0,1.242-.257,1.943,1.943,0,0,0,.909-.839Zm9.975-2.4H55.836a3.267,3.267,0,0,0,1.02,2.664,4.781,4.781,0,0,0,3.1.846,6.1,6.1,0,0,0,1.429-.173,3.946,3.946,0,0,0,1.3-.562A3.1,3.1,0,0,0,63.625.574a2.931,2.931,0,0,0,.368-1.512A2.879,2.879,0,0,0,63.8-2.062a2.175,2.175,0,0,0-.548-.777,2.893,2.893,0,0,0-.839-.52,8.262,8.262,0,0,0-1.068-.354l-.652-.146a4.681,4.681,0,0,1-.784-.25,2.286,2.286,0,0,1-.652-.4.778.778,0,0,1-.271-.6,1.051,1.051,0,0,1,.153-.583,1.179,1.179,0,0,1,.4-.382,1.811,1.811,0,0,1,.562-.208,3.142,3.142,0,0,1,.617-.062,3.161,3.161,0,0,1,.708.076A1.523,1.523,0,0,1,62-6.016a1.193,1.193,0,0,1,.375.465,1.537,1.537,0,0,1,.118.7h2.067a3.278,3.278,0,0,0-.3-1.464,2.783,2.783,0,0,0-.8-.992,3.242,3.242,0,0,0-1.179-.562,5.735,5.735,0,0,0-1.436-.173,5.9,5.9,0,0,0-1.422.173,3.988,3.988,0,0,0-1.256.541,2.908,2.908,0,0,0-.9.95,2.72,2.72,0,0,0-.347,1.415,2.467,2.467,0,0,0,.215,1.082,2.3,2.3,0,0,0,.569.749,3.138,3.138,0,0,0,.8.5,7.709,7.709,0,0,0,.916.333q.458.139.909.264a5.071,5.071,0,0,1,.8.291,1.945,1.945,0,0,1,.576.4.812.812,0,0,1,.222.59,1.135,1.135,0,0,1-.173.638,1.408,1.408,0,0,1-.444.43,2.128,2.128,0,0,1-.6.25,2.736,2.736,0,0,1-.666.083,3.994,3.994,0,0,1-.874-.09,1.89,1.89,0,0,1-.694-.3,1.312,1.312,0,0,1-.444-.562A1.963,1.963,0,0,1,57.9-1.188ZM68.6-6.182l.361-1.623H66.975l-.361,1.623Zm-2.206,1.11L64.881,2.1h1.97l1.526-7.172Zm3.843,0L68.751,2.1h1.956l.8-3.815a3.912,3.912,0,0,1,.243-.735,2.492,2.492,0,0,1,.4-.638,1.933,1.933,0,0,1,.583-.451,1.7,1.7,0,0,1,.784-.173,1.105,1.105,0,0,1,.645.208.622.622,0,0,1,.3.527,2.68,2.68,0,0,1-.049.43q-.049.277-.076.444l-.874,4.2h1.97l.888-4.2q.014-.1.049-.257t.069-.34q.035-.18.062-.354a1.874,1.874,0,0,0,.028-.284q0-1.928-2.095-1.928a3.064,3.064,0,0,0-2.511,1.193H71.9l.222-1ZM83.1-2.589h1.97A2.829,2.829,0,0,0,84.8-3.81a2.266,2.266,0,0,0-.694-.832,3,3,0,0,0-1.02-.472,4.856,4.856,0,0,0-1.235-.153,3.984,3.984,0,0,0-1.72.354,3.709,3.709,0,0,0-1.269.971,4.305,4.305,0,0,0-.791,1.429A5.427,5.427,0,0,0,77.8-.786a2.948,2.948,0,0,0,.839,2.324,3.431,3.431,0,0,0,2.351.742,3.657,3.657,0,0,0,2.338-.728A4.254,4.254,0,0,0,84.691-.522h-1.97a2.873,2.873,0,0,1-.215.506,1.568,1.568,0,0,1-.333.423A1.678,1.678,0,0,1,81.715.7a1.474,1.474,0,0,1-.59.111,1.435,1.435,0,0,1-.631-.125,1.211,1.211,0,0,1-.423-.333,1.251,1.251,0,0,1-.236-.492,2.539,2.539,0,0,1-.069-.6,5.208,5.208,0,0,1,.1-.992,3.7,3.7,0,0,1,.34-.992,2.22,2.22,0,0,1,.624-.756,1.5,1.5,0,0,1,.943-.3,1.5,1.5,0,0,1,.992.277A1.143,1.143,0,0,1,83.1-2.589Zm8.088.333H87.9a3.707,3.707,0,0,1,.27-.583,1.917,1.917,0,0,1,.4-.486,1.847,1.847,0,0,1,.555-.333,2.008,2.008,0,0,1,.735-.125,1.558,1.558,0,0,1,.694.132.973.973,0,0,1,.4.354,1.379,1.379,0,0,1,.187.492A3.1,3.1,0,0,1,91.184-2.256Zm-3.5,1.249h5.286a6.156,6.156,0,0,0,.111-1.124A3.568,3.568,0,0,0,92.841-3.5a2.684,2.684,0,0,0-.68-.985,2.8,2.8,0,0,0-1.054-.59,4.538,4.538,0,0,0-1.366-.194A3.64,3.64,0,0,0,88.09-4.9a3.759,3.759,0,0,0-1.242.985A4.583,4.583,0,0,0,86.064-2.5a5.01,5.01,0,0,0-.277,1.658,3.706,3.706,0,0,0,.229,1.36,2.677,2.677,0,0,0,.645.978,2.633,2.633,0,0,0,1.006.59,4.174,4.174,0,0,0,1.311.194,5.482,5.482,0,0,0,1.366-.153,3.151,3.151,0,0,0,1.034-.465,3.1,3.1,0,0,0,.763-.77A5.035,5.035,0,0,0,92.7-.175h-1.97q-.111.166-.243.347a1.664,1.664,0,0,1-.305.319,1.546,1.546,0,0,1-.4.229,1.411,1.411,0,0,1-.52.09A1.625,1.625,0,0,1,88.062.421a1.37,1.37,0,0,1-.388-1.013V-.883A.64.64,0,0,1,87.688-1.007ZM102.5,2.1l2.053-9.711h-1.609a3.473,3.473,0,0,1-.6.929,2.849,2.849,0,0,1-.749.576,3.151,3.151,0,0,1-.888.305,7.617,7.617,0,0,1-1.02.118L99.368-4.2h2.372l-1.332,6.3Zm5.244-2.511h-1.887A3.124,3.124,0,0,0,106.132.81a2.357,2.357,0,0,0,.645.839,2.594,2.594,0,0,0,.95.479,4.408,4.408,0,0,0,1.186.153,4.131,4.131,0,0,0,2-.479,4.561,4.561,0,0,0,1.5-1.311,6.007,6.007,0,0,0,.936-1.949,8.675,8.675,0,0,0,.319-2.393,6.284,6.284,0,0,0-.187-1.581,3.342,3.342,0,0,0-.6-1.249,2.841,2.841,0,0,0-1.068-.825,3.785,3.785,0,0,0-1.581-.3,3.744,3.744,0,0,0-1.477.291,3.726,3.726,0,0,0-1.193.8,3.634,3.634,0,0,0-.791,1.193,3.787,3.787,0,0,0-.284,1.464,3.542,3.542,0,0,0,.2,1.228,2.64,2.64,0,0,0,.576.936,2.508,2.508,0,0,0,.909.6,3.242,3.242,0,0,0,1.186.208,3.008,3.008,0,0,0,1.193-.243,2.171,2.171,0,0,0,.943-.784l.028.028q-.153.472-.354.985a4.61,4.61,0,0,1-.492.936,2.615,2.615,0,0,1-.708.7,1.734,1.734,0,0,1-.985.277A1.205,1.205,0,0,1,108.1.477,1.232,1.232,0,0,1,107.748-.411Zm4.023-4.134a2.274,2.274,0,0,1-.125.749,1.958,1.958,0,0,1-.354.631,1.693,1.693,0,0,1-.555.43,1.667,1.667,0,0,1-.742.16,1.548,1.548,0,0,1-1.124-.4,1.646,1.646,0,0,1-.416-1.235,2.1,2.1,0,0,1,.479-1.408,1.68,1.68,0,0,1,1.353-.562,1.39,1.39,0,0,1,.59.125,1.5,1.5,0,0,1,.472.34,1.515,1.515,0,0,1,.312.513A1.876,1.876,0,0,1,111.771-4.545Zm4.148,3.51q0-.347.049-.86t.16-1.082a9.717,9.717,0,0,1,.3-1.145,4.93,4.93,0,0,1,.465-1.034,2.624,2.624,0,0,1,.652-.742,1.384,1.384,0,0,1,.86-.284,1.4,1.4,0,0,1,.645.139,1.25,1.25,0,0,1,.444.375,1.523,1.523,0,0,1,.25.555,2.917,2.917,0,0,1,.076.68q0,.333-.049.839A10.033,10.033,0,0,1,119.6-2.52a9.453,9.453,0,0,1-.312,1.138,5.246,5.246,0,0,1-.472,1.027,2.575,2.575,0,0,1-.659.742,1.434,1.434,0,0,1-.881.284,1.421,1.421,0,0,1-.666-.139A1.11,1.11,0,0,1,116.2.165a1.492,1.492,0,0,1-.215-.541A3.356,3.356,0,0,1,115.919-1.035Zm-1.956-.4a5.9,5.9,0,0,0,.166,1.422,3.506,3.506,0,0,0,.527,1.186,2.54,2.54,0,0,0,.95.812,3.12,3.12,0,0,0,1.422.3A3.825,3.825,0,0,0,118.513,2a4.2,4.2,0,0,0,1.193-.749,5.037,5.037,0,0,0,.923-1.11,7.226,7.226,0,0,0,.652-1.346,8.2,8.2,0,0,0,.382-1.464,8.98,8.98,0,0,0,.125-1.464,5.2,5.2,0,0,0-.2-1.491,3.251,3.251,0,0,0-.6-1.158,2.727,2.727,0,0,0-1.013-.756,3.5,3.5,0,0,0-1.429-.271,3.562,3.562,0,0,0-1.422.277,3.914,3.914,0,0,0-1.151.756,5.189,5.189,0,0,0-.888,1.117,7.115,7.115,0,0,0-.624,1.346,9.168,9.168,0,0,0-.368,1.443A8.529,8.529,0,0,0,113.963-1.438ZM128.1-5.1H130a3.124,3.124,0,0,0-.271-1.221,2.322,2.322,0,0,0-.652-.839,2.751,2.751,0,0,0-.957-.486,4.227,4.227,0,0,0-1.186-.16,4.083,4.083,0,0,0-2,.486A4.636,4.636,0,0,0,123.431-6a6.009,6.009,0,0,0-.936,1.949,8.677,8.677,0,0,0-.319,2.393,6.285,6.285,0,0,0,.187,1.582,3.343,3.343,0,0,0,.6,1.249,2.779,2.779,0,0,0,1.068.818,3.864,3.864,0,0,0,1.582.291,3.743,3.743,0,0,0,1.477-.291,3.785,3.785,0,0,0,1.193-.791,3.574,3.574,0,0,0,.791-1.179,3.771,3.771,0,0,0,.284-1.471,3.542,3.542,0,0,0-.2-1.228,2.64,2.64,0,0,0-.576-.936,2.508,2.508,0,0,0-.909-.6,3.243,3.243,0,0,0-1.186-.208,3.008,3.008,0,0,0-1.193.243,2.171,2.171,0,0,0-.943.784l-.028-.028q.153-.472.354-.985a4.614,4.614,0,0,1,.492-.936,2.614,2.614,0,0,1,.708-.7,1.734,1.734,0,0,1,.985-.277,1.205,1.205,0,0,1,.881.333A1.232,1.232,0,0,1,128.1-5.1ZM124.076-.966a2.255,2.255,0,0,1,.125-.756,1.972,1.972,0,0,1,.354-.624,1.692,1.692,0,0,1,.555-.43,1.667,1.667,0,0,1,.742-.16,1.548,1.548,0,0,1,1.124.4,1.646,1.646,0,0,1,.416,1.235,2.1,2.1,0,0,1-.479,1.408,1.68,1.68,0,0,1-1.353.562,1.364,1.364,0,0,1-1.075-.465A1.709,1.709,0,0,1,124.076-.966Z" transform="translate(66.766 112.041)" fill="#5f5f5f"/>
    </g>
  </g>
</svg>
